<?xml version="1.0" encoding="utf-8"?><!-- Uploaded to: SVG Repo, www.svgrepo.com, Generator: SVG Repo Mixer Tools -->
<svg width="800px" height="800px" viewBox="0 0 100 100" xmlns="http://www.w3.org/2000/svg" xmlns:xlink="http://www.w3.org/1999/xlink" aria-hidden="true" role="img" class="iconify iconify--gis" preserveAspectRatio="xMidYMid meet"><path d="M2.5 12.5A2.5 2.5 0 0 0 0 15v70a2.5 2.5 0 0 0 2.5 2.5h95A2.5 2.5 0 0 0 100 85V15a2.5 2.5 0 0 0-2.5-2.5zm2.5 5h90v65H5z" fill="#000000"></path><path d="M71.668 17.496v16.668h16.664V17.496zm16.664 16.668v16.664H99V34.164zm0 16.664H71.668v16.668h16.664zm0 16.668v16.666H99V67.496zm-16.664 0H55v16.666h16.668zm-16.668 0V50.832H38.332v16.664zm-16.668 0H21.668v16.668h16.664zm-16.664 0V50.832H5v16.664zm0-16.664h16.664V34.164H21.668zm0-16.668V17.5H5v16.664zm16.664 0H55V17.5H38.332zm16.668 0v16.664h16.668V34.164z" fill="#000000"></path></svg>